# xmcd
#
# Track frame offsets:
#	150
#	18060
#	34167
#	52747
#	71570
#	91547
#	108892
#	122075
#
# Disc length: 1852 seconds
#
# Revision: 1
# Processed by: cddbd v1.5.2PL0 Copyright (c) Steve Scherf et al.
# Submitted via: EZCDAudioConverter 5.5.0.1
#
DISCID=52073a08
DTITLE=Gianni Bella - Sus Éxitos en Español
DYEAR=1992
DGENRE=Ballad
TTITLE0=Yo Canto y Tú
TTITLE1=No
TTITLE2=Me Marcharé
TTITLE3=Si de Amor ya no se Muere
TTITLE4=Estás
TTITLE5=Enamorarse
TTITLE6=Te Amo
TTITLE7=Dulce Huracán
EXTD=
EXTT0=
EXTT1=
EXTT2=
EXTT3=
EXTT4=
EXTT5=
EXTT6=
EXTT7=
PLAYORDER=
